<svg xmlns="http://www.w3.org/2000/svg" xmlns:xlink="http://www.w3.org/1999/xlink" version="1.1" x="0px" y="0px" viewBox="0 0 100 125" enable-background="new 0 0 100 100" xml:space="preserve"><path d="M92.466,7.4H22.594c-1.104,0-2,0.896-2,2v31.672c-1.588,1.174-3.36,2.885-3.939,4.956c-1.311,4.694-1.146,8.405,0.49,11.031  c0.963,1.546,2.212,2.34,3.105,2.737l1.642,3.705l-0.041,2.539C8.098,70.353,7.657,71.625,7.332,72.563  C6.692,74.415,5.8,84.09,5.542,87.012c-0.05,0.559,0.138,1.113,0.517,1.527c0.379,0.414,0.914,0.649,1.476,0.649h6.172V90.6  c0,1.104,0.896,2,2,2h34.517c1.104,0,2-0.896,2-2v-1.412h7.042c0.562,0,1.098-0.236,1.477-0.651c0.379-0.415,0.565-0.97,0.516-1.529  c-0.212-2.335-0.628-6.66-1.103-10.06h32.312c1.104,0,2-0.896,2-2V9.4C94.466,8.295,93.57,7.4,92.466,7.4z M44.097,65.853  l-0.078-2.744l1.642-3.526c0.851-0.354,1.998-1.058,2.902-2.441c0.975-1.494,1.411-3.415,1.336-5.718h12.207  c0.069,2.249,1.991,4.059,4.367,4.09v12.29H50.001C48.354,67.234,46.408,66.588,44.097,65.853z M28.852,56.159  c1.807,0,3.293-1.398,3.435-3.169h1.377c0.142,1.771,1.628,3.169,3.435,3.169c1.565,0,2.892-1.05,3.31-2.482h1.254  c0.209,1.181,0.558,2.233,0.984,3.038c-0.092,0.118-1.673,3.46-1.673,3.46c-1.605-1.6-3.921-2.834-5.68-3.145  c-0.248-0.047-0.997,0.585-0.997,0.837c0,0.756-2.641,0.756-2.641,0c0-0.251-0.752-0.884-0.997-0.837  c-1.842,0.325-4.233,1.627-5.787,3.321c0,0-1.498-3.295-1.618-3.438c0.379-0.894,0.671-2.014,0.83-3.236h1.459  C25.96,55.109,27.286,56.159,28.852,56.159z M27.104,52.713c0-0.963,0.784-1.746,1.747-1.746s1.746,0.783,1.746,1.746  s-0.783,1.746-1.746,1.746S27.104,53.676,27.104,52.713z M35.352,52.713c0-0.963,0.783-1.746,1.746-1.746s1.747,0.783,1.747,1.746  s-0.784,1.746-1.747,1.746S35.352,53.676,35.352,52.713z M44.132,55.892c-0.729-1.459-1.515-4.701-0.522-7.848  c0.172-0.543-0.003-1.777-0.298-3.144c0.895,0.753,1.634,1.559,1.822,2.216C46.133,50.613,45.937,54.625,44.132,55.892z   M30.213,58.894c0.47,0.875,1.54,1.457,2.847,1.457c0.727,0,1.409-0.195,1.922-0.549c0.347-0.24,0.611-0.546,0.782-0.9  c1.51,0.494,4.234,2.539,4.243,2.85c0,0,0.25,6.262,0.401,6.535c-0.879,2.066-4.341,4.074-7.433,4.074  c-3.15,0-6.559-1.859-7.445-3.833c0.173-0.292,0.369-6.402,0.369-6.402C25.903,61.835,28.617,59.412,30.213,58.894z M72.901,33.693  c0.052,0.995,0.455,1.905,1.112,2.602l-5.856,11.082c-0.219-0.082-0.449-0.14-0.684-0.189V33.693H72.901z M75.41,37.291  c0.579,0.263,1.227,0.411,1.91,0.411c2.373,0,4.3-1.782,4.418-4.008h3.289v16.73H70.875c-0.188-0.838-0.638-1.586-1.265-2.159  L75.41,37.291z M74.579,33.484c0-1.388,1.229-2.517,2.741-2.517c1.68,0,2.741,1.08,2.741,2.517c0,1.388-1.03,2.518-2.741,2.518  C75.812,36.001,74.579,34.875,74.579,33.484z M66.533,53.82c-1.512,0-2.741-1.129-2.741-2.517c0-1.396,1.145-2.518,2.741-2.518  c1.436,0,2.74,1.012,2.74,2.518C69.273,52.691,68.044,53.82,66.533,53.82z M66.473,47.088c-1.37,0.018-2.593,0.625-3.396,1.569  l-5.931-2.678c0.176-0.454,0.271-0.943,0.271-1.454c0-2.326-1.992-4.218-4.44-4.218c-2.349,0-4.258,1.747-4.41,3.942V33.693h17.905  V47.088z M49.833,50.424c-0.11-1.19-0.347-2.474-0.713-3.851c0.761,1.287,2.195,2.17,3.857,2.17c1.27,0,2.417-0.509,3.227-1.323  l6.056,2.734c-0.026,0.088-0.04,0.18-0.06,0.27H49.833z M50.237,44.525c0-1.388,1.229-2.518,2.74-2.518  c1.512,0,2.741,1.129,2.741,2.518c0,1.412-1.156,2.517-2.741,2.517C51.467,47.042,50.237,45.914,50.237,44.525z M67.473,55.421  c1.957-0.403,3.427-2.033,3.487-3.997h14.068v16.38H67.473V55.421z M81.674,32.693c-0.176-0.876-0.63-1.659-1.282-2.252l4.635-3.301  v5.553H81.674z M85.027,25.053l-6.246,4.448c-0.458-0.152-0.949-0.234-1.461-0.234c-2.163,0-3.965,1.479-4.356,3.427h-5.491v-16.38  h17.555V25.053z M66.473,32.693H48.567v-16.38h17.905V32.693z M47.567,32.693H30.013v-16.38h17.555V32.693z M30.013,33.693h17.555  v9.816c-1.576-1.901-7.13-7.819-14.372-7.819c-1.076,0-2.142,0.083-3.183,0.293V33.693z M33.124,39.69  c6.334,0,7.839,3.549,8.063,3.686c0.5,1.921,0.878,3.737,0.802,4.156c-0.455,1.443-0.599,2.988-0.521,4.445h-1.003  c-0.338-1.548-1.719-2.71-3.367-2.71c-1.393,0-2.596,0.831-3.139,2.023H31.99c-0.543-1.192-1.746-2.023-3.139-2.023  c-1.648,0-3.029,1.163-3.367,2.71h-1.269c0.039-1.5-0.126-3.047-0.562-4.422c-0.082-0.441,0.305-2.295,0.812-4.239  C24.715,43.171,26.625,39.69,33.124,39.69z M20.507,47.104c0.216-0.773,0.973-1.594,1.844-2.317c-0.311,1.411-0.5,2.699-0.324,3.257  c0.954,3.02,0.366,6.314-0.279,8.042C19.938,54.542,19.266,51.549,20.507,47.104z M48.223,88.6H17.706v-9.716h30.517V88.6z   M52.223,85.188v-8.304c0-1.104-0.896-2-2-2H15.706c-1.104,0-2,0.896-2,2v8.304h-3.98c0.439-4.656,0.966-9.32,1.283-10.892  c1.63-0.947,7.778-3.117,13.108-4.771c1.399,2.634,5.418,4.535,8.858,4.535c3.328,0,7.373-2.069,8.809-4.743  c5.659,1.784,12.195,4.086,13.888,5.025c0.367,1.55,0.943,6.271,1.395,10.846H52.223z M90.466,72.948H59.429  c-0.062-0.224-0.713-1.783-4.828-3.443h31.276c0.47,0,0.85-0.381,0.85-0.85V15.463c0-0.469-0.38-0.85-0.85-0.85H29.163  c-0.47,0-0.85,0.381-0.85,0.85v20.975c-1.328,0.439-2.587,1.057-3.72,1.849V11.4h65.872V72.948z M30.636,62.677  c0-0.469,0.38-0.85,0.85-0.85h2.979c0.47,0,0.85,0.381,0.85,0.85s-0.38,0.85-0.85,0.85h-2.979  C31.016,63.527,30.636,63.146,30.636,62.677z"/><text x="0" y="115" fill="#000000" font-size="5px" font-weight="bold" font-family="'Helvetica Neue', Helvetica, Arial-Unicode, Arial, Sans-serif">Created by H Alberto Gongora</text><text x="0" y="120" fill="#000000" font-size="5px" font-weight="bold" font-family="'Helvetica Neue', Helvetica, Arial-Unicode, Arial, Sans-serif">from the Noun Project</text></svg>