<svg xmlns:dc="http://purl.org/dc/elements/1.1/" xmlns:cc="http://creativecommons.org/ns#" xmlns:rdf="http://www.w3.org/1999/02/22-rdf-syntax-ns#" xmlns:svg="http://www.w3.org/2000/svg" xmlns="http://www.w3.org/2000/svg" version="1.1" viewBox="0 0 100 125" xml:space="preserve" x="0px" y="0px"><path d="M 76.625,5.21875 C 76.329692,5.1694294 76.049332,5.392167 76,5.6875 l -0.59375,3.46875 c -1.430246,0.095464 -2.869868,0.3779711 -4.28125,0.90625 -1.410639,0.528 -2.702873,1.258592 -3.84375,2.125 l -2.71875,-2.25 c -0.231125,-0.1903581 -0.559641,-0.1373448 -0.75,0.09375 l -3.71875,4.5 c -0.190368,0.231099 -0.168516,0.559632 0.0625,0.75 l 2.75,2.25 c -1.280946,2.6044 -1.818668,5.585283 -1.4375,8.5625 l -3.3125,1.21875 C 57.875829,27.417462 57.738795,27.719597 57.84375,28 l 2.0625,5.46875 c 0.104965,0.28043 0.407079,0.417461 0.6875,0.3125 L 63.875,32.5625 c 1.667325,2.495055 4.043017,4.376973 6.71875,5.5 L 70,41.53125 c -0.04923,0.295296 0.142184,0.575713 0.4375,0.625 l 5.75,0.96875 c 0.295314,0.04931 0.575675,-0.142149 0.625,-0.4375 l 0.59375,-3.46875 c 1.429362,-0.09567 2.870675,-0.409523 4.28125,-0.9375 1.410747,-0.528041 2.702752,-1.258475 3.84375,-2.125 l 2.71875,2.25 c 0.231132,0.190376 0.559649,0.168586 0.75,-0.0625 l 3.71875,-4.5 c 0.190357,-0.231073 0.168557,-0.590868 -0.0625,-0.78125 l -2.75,-2.25 c 1.280221,-2.603601 1.818167,-5.555178 1.4375,-8.53125 l 3.3125,-1.25 c 0.280449,-0.104972 0.417465,-0.40707 0.3125,-0.6875 L 92.90625,14.875 c -0.104954,-0.280403 -0.407052,-0.417471 -0.6875,-0.3125 l -3.28125,1.25 C 87.27038,13.317191 84.894351,11.404585 82.21875,10.28125 L 82.8125,6.8125 C 82.86178,6.517218 82.670305,6.2368116 82.375,6.1875 L 76.625,5.21875 z M 76.8125,14 c 3.962698,0.166682 7.647372,2.677275 9.125,6.625 1.970171,5.263632 -0.705118,11.123579 -5.96875,13.09375 C 74.705099,35.688928 68.845171,33.013632 66.875,27.75 64.904829,22.486367 67.580099,16.626428 72.84375,14.65625 74.159658,14.163707 75.491601,13.944439 76.8125,14 z M 53.34375,31.34375 C 53.178192,31.31611 53.027627,31.396909 53,31.5625 L 52.46875,34.75 c -1.981769,-0.09806 -4.000051,0.09818 -6,0.59375 l -1.125,-3.03125 C 45.28488,32.155233 45.094703,32.097409 44.9375,32.15625 L 40.96875,33.625 c -0.157194,0.05884 -0.215115,0.248983 -0.15625,0.40625 l 1.125,3 c -1.833347,0.939156 -3.476227,2.125197 -4.90625,3.5 l -2.5,-2.03125 c -0.129586,-0.10675 -0.29953,-0.0983 -0.40625,0.03125 l -2.6875,3.28125 c -0.106726,0.129566 -0.09831,0.299493 0.03125,0.40625 l 2.46875,2.0625 c -1.092192,1.697562 -1.905561,3.530362 -2.46875,5.46875 l -3.1875,-0.53125 c -0.165554,-0.02763 -0.316117,0.08439 -0.34375,0.25 l -0.71875,4.1875 c -0.02764,0.165601 0.08446,0.316094 0.25,0.34375 l 3.1875,0.53125 c -0.09794,1.981238 0.09831,4.00057 0.59375,6 l -3.03125,1.125 c -0.157212,0.05884 -0.246338,0.249056 -0.1875,0.40625 l 1.5,3.96875 c 0.05884,0.157194 0.217788,0.215094 0.375,0.15625 l 3.03125,-1.125 c 0.939409,1.833831 2.124782,3.476 3.5,4.90625 l -2.0625,2.5 c -0.106717,0.129563 -0.06704,0.299627 0.0625,0.40625 l 3.25,2.71875 c 0.129556,0.106699 0.330777,0.06704 0.4375,-0.0625 l 2.0625,-2.46875 c 1.697146,1.091852 3.530836,1.936891 5.46875,2.5 L 45.125,78.71875 c -0.02764,0.165549 0.08444,0.316113 0.25,0.34375 l 4.1875,0.71875 c 0.165558,0.02764 0.316076,-0.08453 0.34375,-0.25 l 0.53125,-3.1875 c 1.981272,0.09795 4.00055,-0.06712 6,-0.5625 l 1.125,3 c 0.05884,0.157203 0.217806,0.246337 0.375,0.1875 l 3.96875,-1.5 c 0.157203,-0.05884 0.246341,-0.217797 0.1875,-0.375 l -1.125,-3.03125 c 1.833798,-0.939469 3.475922,-2.124795 4.90625,-3.5 l 2.5,2.0625 c 0.12952,0.10663 0.299529,0.06705 0.40625,-0.0625 l 2.6875,-3.25 c 0.106721,-0.129554 0.09831,-0.330792 -0.03125,-0.4375 l -2.5,-2.03125 c 1.091888,-1.69716 1.936856,-3.562125 2.5,-5.5 L 74.625,61.875 c 0.165564,0.02763 0.316103,-0.08446 0.34375,-0.25 l 0.71875,-4.1875 c 0.02767,-0.165468 -0.08444,-0.3161 -0.25,-0.34375 L 72.25,56.5625 c 0.0981,-1.981713 -0.09819,-4.000035 -0.59375,-6 l 3.03125,-1.125 c 0.157203,-0.05884 0.246337,-0.217806 0.1875,-0.375 l -1.5,-3.96875 C 73.31616,44.936556 73.157203,44.847409 73,44.90625 l -3.03125,1.125 c -0.939174,-1.83334 -2.125253,-3.476237 -3.5,-4.90625 l 2.0625,-2.46875 c 0.106718,-0.129563 0.06707,-0.330744 -0.0625,-0.4375 l -3.25,-2.6875 c -0.129571,-0.106766 -0.330767,-0.09829 -0.4375,0.03125 l -2.0625,2.5 c -1.697536,-1.092202 -3.53036,-1.936781 -5.46875,-2.5 l 0.53125,-3.1875 c 0.02764,-0.165598 -0.08444,-0.3161 -0.25,-0.34375 l -4.1875,-0.6875 z m -36.375,6.53125 c -0.132093,0.03155 -0.226165,0.138553 -0.25,0.28125 l -0.375,2.21875 c -0.921414,0.0615 -1.87199,0.253415 -2.78125,0.59375 -0.908781,0.340156 -1.733754,0.816831 -2.46875,1.375 l -1.75,-1.4375 C 9.1948514,40.783613 8.9976343,40.788623 8.875,40.9375 l -2.40625,2.90625 c -0.1226433,0.14888 -0.086328,0.377358 0.0625,0.5 l 1.75,1.4375 c -0.8252288,1.677839 -1.183057,3.581977 -0.9375,5.5 l -2.125,0.8125 c -0.1806607,0.06762 -0.2551143,0.256857 -0.1875,0.4375 l 1.3125,3.53125 c 0.067621,0.180661 0.2568393,0.255121 0.4375,0.1875 l 2.125,-0.78125 c 1.0741479,1.607397 2.588703,2.807755 4.3125,3.53125 l -0.375,2.25 c -0.03172,0.190241 0.09099,0.374497 0.28125,0.40625 l 3.71875,0.625 C 17.033998,62.31302 17.218223,62.190276 17.25,62 l 0.375,-2.25 c 0.920849,-0.06163 1.841265,-0.253612 2.75,-0.59375 0.908853,-0.340183 1.733681,-0.816753 2.46875,-1.375 l 1.75,1.46875 c 0.148902,0.122646 0.377366,0.08638 0.5,-0.0625 L 27.5,56.28125 c 0.122638,-0.148868 0.08636,-0.37735 -0.0625,-0.5 l -1.75,-1.4375 c 0.824761,-1.677324 1.151489,-3.582716 0.90625,-5.5 l 2.125,-0.78125 c 0.180678,-0.06763 0.286371,-0.288089 0.21875,-0.46875 l -1.3125,-3.5 C 27.55739,43.913108 27.336929,43.807372 27.15625,43.875 l -2.125,0.78125 C 23.957237,43.048689 22.442466,41.84869 20.71875,41.125 l 0.375,-2.25 c 0.03175,-0.190233 -0.091,-0.374484 -0.28125,-0.40625 L 17.125,37.875 c -0.04756,-0.0079 -0.112219,-0.01052 -0.15625,0 z m 33.84375,1.71875 c 3.378952,-0.132629 6.704954,0.798457 9.46875,2.625 l -5.90625,7.1875 c -1.129637,-0.535124 -2.410339,-0.766151 -3.6875,-0.625 l -3.25,-8.6875 c 1.125637,-0.293714 2.248683,-0.45579 3.375,-0.5 z m -6.5,1.65625 3.25,8.6875 c -1.055958,0.732133 -1.843107,1.729664 -2.34375,2.875 l -9.15625,-1.5 c 1.180296,-4.256416 4.082711,-7.992196 8.25,-10.0625 z M 16.625,43.53125 c 2.79062,-0.158007 5.468735,1.494808 6.5,4.25 1.269249,3.391005 -0.452744,7.168251 -3.84375,8.4375 -3.391014,1.269252 -7.168251,-0.452745 -8.4375,-3.84375 -1.2692488,-3.391006 0.452735,-7.168247 3.84375,-8.4375 0.635813,-0.237984 1.293511,-0.369787 1.9375,-0.40625 z m 46.21875,0.8125 c 1.527287,1.550005 2.750402,3.455349 3.5625,5.625 0.812084,2.169614 1.134193,4.390626 1,6.5625 L 58.25,55 C 58.20156,54.383399 58.070564,53.762221 57.84375,53.15625 57.616935,52.550278 57.305827,51.996869 56.9375,51.5 l 5.90625,-7.15625 z m -11.25,7.6875 c 1.375743,0.05241 2.638335,0.897555 3.15625,2.28125 0.690553,1.844926 -0.217574,3.871947 -2.0625,4.5625 -1.844926,0.690553 -3.840696,-0.248824 -4.53125,-2.09375 -0.690553,-1.844926 0.217574,-3.840696 2.0625,-4.53125 0.461231,-0.172638 0.916419,-0.236221 1.375,-0.21875 z M 35.5,54.5625 l 9.15625,1.53125 c 0.04826,0.61757 0.179083,1.236835 0.40625,1.84375 0.227167,0.606914 0.537148,1.158772 0.90625,1.65625 L 40.0625,66.75 C 38.53432,65.199627 37.312426,63.32678 36.5,61.15625 35.687559,58.985683 35.36539,56.735274 35.5,54.5625 z m 22.1875,3.71875 9.15625,1.53125 c -1.180316,4.256444 -4.113875,7.960955 -8.28125,10.03125 l -3.25,-8.6875 c 1.055958,-0.732133 1.874357,-1.729664 2.375,-2.875 z m -9.15625,3.4375 c 1.129637,0.535124 2.410338,0.76615 3.6875,0.625 L 55.46875,71 C 50.966266,72.17475 46.309995,71.310322 42.625,68.875 l 5.90625,-7.15625 z m -19,8.625 c -0.190252,-0.03177 -0.37447,0.122236 -0.40625,0.3125 L 28.75,72.875 c -0.921414,0.0615 -1.840739,0.253415 -2.75,0.59375 -0.90878,0.340155 -1.733754,0.816832 -2.46875,1.375 l -1.75,-1.4375 c -0.148898,-0.122636 -0.377366,-0.117632 -0.5,0.03125 l -2.375,2.90625 c -0.122644,0.14888 -0.117579,0.377357 0.03125,0.5 l 1.75,1.4375 c -0.825229,1.67784 -1.151807,3.581976 -0.90625,5.5 l -2.125,0.8125 c -0.18066,0.06762 -0.286364,0.256858 -0.21875,0.4375 L 18.75,88.5625 c 0.06762,0.18066 0.288089,0.255121 0.46875,0.1875 l 2.125,-0.78125 c 1.074148,1.607397 2.588703,2.807756 4.3125,3.53125 l -0.375,2.25 c -0.03172,0.19024 0.09099,0.374497 0.28125,0.40625 l 3.71875,0.625 c 0.190249,0.03177 0.343224,-0.09097 0.375,-0.28125 l 0.375,-2.25 c 0.920848,-0.06163 1.872515,-0.253611 2.78125,-0.59375 0.908852,-0.340182 1.733681,-0.816752 2.46875,-1.375 l 1.75,1.46875 c 0.148902,0.122646 0.346115,0.08638 0.46875,-0.0625 l 2.40625,-2.90625 c 0.122638,-0.148868 0.08636,-0.37735 -0.0625,-0.5 l -1.75,-1.4375 c 0.82476,-1.677323 1.182739,-3.582716 0.9375,-5.5 l 2.125,-0.78125 c 0.180679,-0.06763 0.255122,-0.288089 0.1875,-0.46875 l -1.3125,-3.53125 c -0.06761,-0.180643 -0.256821,-0.255127 -0.4375,-0.1875 l -2.125,0.78125 C 36.394737,75.548689 34.879965,74.348691 33.15625,73.625 l 0.375,-2.25 C 33.563,71.184767 33.440249,71.000516 33.25,70.96875 l -3.71875,-0.625 z M 29.65625,76 c 2.552902,0.107382 4.923063,1.737996 5.875,4.28125 1.269249,3.391006 -0.452745,7.168251 -3.84375,8.4375 -3.391015,1.269253 -7.168251,-0.452745 -8.4375,-3.84375 -1.269249,-3.391006 0.452736,-7.168248 3.84375,-8.4375 0.847752,-0.317312 1.711533,-0.473294 2.5625,-0.4375 z" style="" fill="#000000" fill-opacity="1" fill-rule="evenodd" stroke="none"/><text x="0" y="115" fill="#000000" font-size="5px" font-weight="bold" font-family="'Helvetica Neue', Helvetica, Arial-Unicode, Arial, Sans-serif">Created by ImageCatalog</text><text x="0" y="120" fill="#000000" font-size="5px" font-weight="bold" font-family="'Helvetica Neue', Helvetica, Arial-Unicode, Arial, Sans-serif">from the Noun Project</text></svg>