<svg height="480pt" viewBox="0 0 480 480" width="480pt" xmlns="http://www.w3.org/2000/svg"><path d="m472.992188 200.0625-38.023438-4.734375c-4.945312-21.8125-13.566406-42.628906-25.488281-61.550781l23.488281-30.3125c2.46875-3.1875 2.179688-7.710938-.671875-10.5625l-45.199219-45.199219c-2.851562-2.84375-7.371094-3.128906-10.554687-.664063l-30.3125 23.472657c-18.925781-11.917969-39.742188-20.53125-61.558594-25.472657l-4.734375-38.03125c-.5-4.003906-3.902344-7.007812-7.9375-7.007812h-64c-4.035156 0-7.4375 3.003906-7.9375 7.007812l-4.734375 38.03125c-21.816406 4.941407-42.632813 13.554688-61.558594 25.472657l-30.3125-23.472657c-3.183593-2.464843-7.703125-2.179687-10.554687.664063l-45.199219 45.199219c-2.851563 2.851562-3.140625 7.375-.671875 10.5625l23.488281 30.3125c-11.921875 18.921875-20.542969 39.738281-25.488281 61.550781l-38.023438 4.734375c-4.003906.5-7.007812 3.902344-7.007812 7.9375v64c0 4.035156 3.003906 7.4375 7.007812 7.9375l38.023438 4.734375c4.945312 21.8125 13.566406 42.628906 25.488281 61.550781l-23.488281 30.3125c-2.46875 3.1875-2.179688 7.710938.671875 10.5625l45.199219 45.199219c2.851562 2.84375 7.371094 3.128906 10.554687.664063l30.3125-23.472657c15.621094 9.765625 32.527344 17.300781 50.230469 22.390625v8.121094c.027344 22.082031 17.917969 39.972656 40 40h32c22.082031-.027344 39.972656-17.917969 40-40v-8.121094c17.703125-5.09375 34.613281-12.632812 50.230469-22.398437l30.3125 23.472656c3.183593 2.464844 7.703125 2.179687 10.554687-.664063l45.199219-45.199218c2.851563-2.851563 3.140625-7.375.671875-10.5625l-23.488281-30.3125c11.921875-18.921875 20.542969-39.738282 25.488281-61.550782l38.023438-4.734374c4-.5 7.003906-3.898438 7.007812-7.929688v-64c0-4.035156-3.003906-7.4375-7.007812-7.9375zm-336.992188 39.9375c-.023438-52.566406 39.179688-96.886719 91.355469-103.277344 52.179687-6.390625 100.921875 27.15625 113.582031 78.175782 12.664062 51.019531-14.738281 103.46875-63.847656 122.214843-1.707032.664063-3.394532 1.207031-5.089844 1.765625v-81.765625l9.511719-33.28125 15.136719 35.320313c1.261718 2.941406 4.152343 4.847656 7.351562 4.847656 1.085938.003906 2.15625-.214844 3.152344-.648438 4.058594-1.742187 5.941406-6.441406 4.199218-10.503906l-24-56c-1.363281-3.078125-4.492187-4.988281-7.855468-4.800781-3.386719.210937-6.269532 2.53125-7.199219 5.792969l-9.824219 34.398437-15.136718-35.316406c-1.261719-2.941406-4.152344-4.847656-7.351563-4.847656s-6.089844 1.90625-7.351563 4.847656l-15.136718 35.316406-9.824219-34.398437c-.929687-3.25-3.804687-5.566406-7.179687-5.78125-3.378907-.214844-6.523438 1.714844-7.859376 4.820312l-24 56c-1.175781 2.636719-.839843 5.699219.878907 8.019532 1.714843 2.316406 4.546875 3.53125 7.410156 3.175781 2.863281-.351563 5.316406-2.222657 6.414063-4.890625l15.136718-35.320313 9.527344 33.25v81.765625c-1.710938-.566406-3.414062-1.109375-5.144531-1.78125-40.148438-15.519531-66.683594-54.054687-66.855469-97.097656zm88 17.601562 16-37.320312 16 37.320312v85.03125c-10.605469 1.605469-21.394531 1.605469-32 0zm-16 98.007813c2.113281.597656 4.222656 1.199219 6.3125 1.648437 16.929688 3.65625 34.445312 3.65625 51.375 0 2.089844-.449218 4.199219-1.050781 6.3125-1.648437v28.390625h-64zm72 84.390625c0 13.253906-10.746094 24-24 24h-32c-13.253906 0-24-10.746094-24-24v-40h80zm184-175.0625-36.664062 4.566406c-3.429688.425782-6.199219 3.007813-6.863282 6.398438-4.648437 23.707031-13.976562 46.242187-27.441406 66.296875-1.917969 2.863281-1.789062 6.628906.320312 9.351562l22.648438 29.25-35.199219 35.199219-29.234375-22.640625c-2.71875-2.109375-6.488281-2.242187-9.351562-.328125-14.28125 9.519531-29.84375 16.964844-46.214844 22.121094v-23.152344c0-4.417969-3.582031-8-8-8v-34.167969c1.648438-.71875 3.28125-1.449219 4.878906-2.230469l12.191406 21.109376 13.859376-8-12.1875-21.109376c12.964843-8.742187 24.101562-19.921874 32.800781-32.914062l21.191406 12.242188 8-13.859376-21.140625-12.207031c6.929688-14.019531 11.039062-29.261719 12.09375-44.863281h24.3125v-16h-24.40625c-1.015625-15.597656-5.09375-30.84375-12-44.863281l21.132812-12.207031-8-13.859376-21.054687 12.160157c-8.730469-12.984375-19.894531-24.148438-32.878906-32.878907l12.160156-21.0625-13.855469-8-12.210937 21.144532c-14.027344-6.921875-29.277344-11.007813-44.886719-12.027344v-24.40625h-16v24.40625c-15.597656 1.015625-30.84375 5.09375-44.863281 12l-12.207031-21.140625-13.859376 8 12.160157 21.0625c-12.984375 8.730469-24.148438 19.894531-32.878907 32.878906l-21.054687-12.160156-8 13.855469 21.136719 12.210937c-6.921875 14.027344-11.007813 29.277344-12.027344 44.886719h-24.40625v16h24.3125c1.066406 15.605469 5.1875 30.847656 12.128906 44.863281l-21.144531 12.207031 8 13.859376 21.183594-12.234376c8.703125 12.988282 19.839843 24.164063 32.800781 32.914063l-12.175781 21.101563 13.855469 8 12.183593-21.101563c1.597657.796875 3.238281 1.511719 4.886719 2.230469v34.160156c-4.417969 0-8 3.582031-8 8v23.152344c-16.359375-5.15625-31.910156-12.605469-46.183594-22.121094-2.863281-1.914062-6.628906-1.78125-9.351562.328125l-29.296875 22.640625-35.199219-35.199219 22.648438-29.234375c2.109374-2.722656 2.238281-6.488281.320312-9.351562-13.464844-20.050782-22.792969-42.589844-27.441406-66.292969-.664063-3.394531-3.433594-5.976563-6.863282-6.402344l-36.664062-4.582031v-49.875l36.664062-4.566406c3.429688-.425782 6.199219-3.007813 6.863282-6.398438 4.648437-23.707031 13.976562-46.242187 27.441406-66.296875 1.917969-2.863281 1.789062-6.628906-.320312-9.351562l-22.648438-29.25 35.199219-35.199219 29.234375 22.640625c2.71875 2.105469 6.480468 2.238281 9.34375.328125 20.054687-13.460938 42.59375-22.789062 66.292968-27.441406 3.390626-.664063 5.972657-3.429688 6.402344-6.855469l4.589844-36.671875h49.875l4.566406 36.671875c.429688 3.425781 3.011719 6.191406 6.398438 6.855469 23.703125 4.652344 46.242187 13.980468 66.296875 27.441406 2.863281 1.910156 6.625 1.777344 9.34375-.328125l29.257812-22.640625 35.199219 35.199219-22.648438 29.234375c-2.109374 2.722656-2.238281 6.488281-.320312 9.351562 13.464844 20.050782 22.792969 42.589844 27.441406 66.292969.664063 3.394531 3.433594 5.976563 6.863282 6.402344l36.664062 4.582031zm0 0"/></svg>