<svg height="480pt" viewBox="0 -16 480 480" width="480pt" xmlns="http://www.w3.org/2000/svg"><path d="m472 0h-464c-4.417969 0-8 3.582031-8 8v288c0 4.417969 3.582031 8 8 8h200v46.886719c-21.078125 9.292969-37.164062 27.171875-44.183594 49.113281h-27.816406c-4.417969 0-8 3.582031-8 8v32c0 4.417969 3.582031 8 8 8h208c4.417969 0 8-3.582031 8-8v-32c0-4.417969-3.582031-8-8-8h-27.816406c-7.015625-21.945312-23.101563-39.828125-44.183594-49.121094v-46.878906h200c4.417969 0 8-3.582031 8-8v-288c0-4.417969-3.582031-8-8-8zm-136 432h-192v-16h192zm-36.800781-32h-118.398438c6.914063-16.949219 20.714844-30.15625 37.953125-36.320312 13.785156-4.910157 28.84375-4.910157 42.628906 0 17.191407 6.191406 30.9375 19.394531 37.816407 36.320312zm-43.199219-54.296875c-10.558594-2.136719-21.441406-2.136719-32 0v-41.703125h32zm208-57.703125h-448v-272h448zm0 0"/><path d="m240 272c66.273438 0 120-53.726562 120-120s-53.726562-120-120-120-120 53.726562-120 120c.074219 66.242188 53.757812 119.925781 120 120zm-103.59375-112h16c2.542969 28.75 19.058594 54.414062 44.175781 68.632812 25.113281 14.222657 55.617188 15.179688 81.578125 2.566407l8.238282 13.730469c-30.917969 15.554687-67.5625 14.65625-97.679688-2.398438-30.121094-17.054688-49.742188-48.015625-52.3125-82.53125zm103.59375-80c39.765625 0 72 32.234375 72 72s-32.234375 72-72 72-72-32.234375-72-72c.042969-39.746094 32.253906-71.957031 72-72zm60.144531 156.6875-8.273437-13.757812c7.800781-5.699219 14.613281-12.632813 20.175781-20.53125l13.984375 8c-7.007812 10.226562-15.773438 19.125-25.886719 26.289062zm43.855469-84.6875c-.015625 15.375-3.472656 30.554688-10.113281 44.425781l-13.886719-7.9375c11.914062-25.925781 10.480469-56.023437-3.839844-80.703125-14.320312-24.675781-39.742187-40.855468-68.160156-43.378906v-16c54.121094 4.210938 95.914062 49.3125 96 103.59375zm-112-103.59375v16c-42.234375 3.910156-75.683594 37.359375-79.59375 79.59375h-16c3.988281-51.050781 44.542969-91.605469 95.59375-95.59375zm0 0"/><path d="m232 184c2.121094 0 4.15625-.84375 5.65625-2.34375l56-56-11.3125-11.3125-50.34375 50.34375-26.34375-26.34375-11.3125 11.3125 32 32c1.5 1.5 3.535156 2.34375 5.65625 2.34375zm0 0"/><path d="m40 40h16v-16h-24c-4.417969 0-8 3.582031-8 8v24h16zm0 0"/><path d="m32 280h24v-16h-16v-16h-16v24c0 4.417969 3.582031 8 8 8zm0 0"/><path d="m440 56h16v-24c0-4.417969-3.582031-8-8-8h-24v16h16zm0 0"/><path d="m456 272v-24h-16v16h-16v16h24c4.417969 0 8-3.582031 8-8zm0 0"/></svg>